
<svg width="54" height="53" viewBox="0 0 54 53" fill="none" xmlns="http://www.w3.org/2000/svg">
      <g clip-path="url(#clip0_117_61)">
      <path d="M45.0003 32.5C45.867 32.5004 46.7004 32.8343 47.3277 33.4324C47.9549 34.0306 48.3281 34.8471 48.3697 35.7128C48.4114 36.5786 48.1184 37.4271 47.5514 38.0827C46.9844 38.7383 46.187 39.1506 45.3243 39.2343L45.0003 39.25H17.1475L20.3875 42.49C21.0013 43.1015 21.3563 43.9256 21.3792 44.7917C21.4021 45.6578 21.091 46.4995 20.5104 47.1425C19.9298 47.7856 19.1241 48.1807 18.2602 48.2462C17.3963 48.3116 16.5404 48.0423 15.8695 47.494L15.613 47.2623L6.99779 38.6448C4.80629 36.4533 6.23279 32.7565 9.22754 32.5135L9.54254 32.5H45.0003ZM33.6153 8.74001C34.2056 8.14915 34.9941 7.79817 35.8282 7.75495C36.6623 7.71173 37.4828 7.97933 38.131 8.50601L38.3875 8.73776L47.0028 17.3553C49.1943 19.5468 47.7678 23.2435 44.773 23.4865L44.458 23.5H9.00029C8.13355 23.4996 7.3002 23.1657 6.67292 22.5676C6.04563 21.9695 5.67251 21.1529 5.63086 20.2872C5.5892 19.4215 5.88222 18.5729 6.44918 17.9173C7.01614 17.2617 7.81359 16.8494 8.67629 16.7658L9.00029 16.75H36.853L33.613 13.51C32.981 12.8772 32.626 12.0194 32.626 11.125C32.626 10.2306 32.9833 9.37282 33.6153 8.74001Z" fill="black"/>
      </g>
      <defs>
      <clipPath id="clip0_117_61">
      <rect width="54" height="52.3401" fill="white" transform="translate(0 0.0672607)"/>
      </clipPath>
      </defs>
      </svg>