
<svg width="32" height="45" viewBox="0 0 32 45" fill="none" xmlns="http://www.w3.org/2000/svg">
      <path d="M0.25 15.7477C0.252588 18.2258 0.840706 20.6682 1.96642 22.8758C3.09212 25.0835 4.72356 26.9938 6.72775 28.4512L6.73 28.4535C8.02018 29.3992 9.44744 30.1421 10.9622 30.6562L11.077 30.699C11.93 30.9774 12.8055 31.1814 13.6938 31.3087C14.4558 31.4306 15.226 31.4945 15.9977 31.5H16C16.7875 31.5 17.5525 31.4235 18.3108 31.311L18.7202 31.248C19.4762 31.1152 20.2142 30.9352 20.9275 30.7012L21.022 30.6652C27.25 28.5592 31.75 22.6755 31.75 15.7477C31.75 7.065 24.685 0 16 0C7.315 0 0.25 7.065 0.25 15.7477ZM16 4.5C22.201 4.5 27.25 9.5445 27.25 15.7477H22.75C22.7476 13.9585 22.0356 12.2432 20.7702 10.9782C19.5048 9.71321 17.7893 9.00178 16 9V4.5ZM5.92225 33.2887V45L16 41.625L26.0778 45L26.08 33.2887C23.0177 35.0639 19.5408 35.9988 16.0011 35.9988C12.4615 35.9988 8.98459 35.0639 5.92225 33.2887Z" fill="black"/>
      </svg>

