<svg width="170" height="170" viewBox="0 0 193 178" fill="none" xmlns="http://www.w3.org/2000/svg">
        <rect x="28.1235" y="24.0517" width="47.0955" height="47.0955" rx="3.75" stroke="black" stroke-width="2.5"/>
        <rect x="28.1235" y="106.38" width="47.0955" height="47.0955" rx="3.75" stroke="black" stroke-width="2.5"/>
        <rect x="111.444" y="106.38" width="47.0955" height="47.0955" rx="3.75" stroke="black" stroke-width="2.5"/>
        <rect x="111.444" y="24.0517" width="47.0955" height="47.0955" rx="3.75" stroke="black" stroke-width="2.5"/>
        <rect x="127.556" y="41.1561" width="13.8787" height="13.8787" rx="4.5" stroke="black"/>
        <rect x="127.556" y="123.485" width="13.8787" height="13.8787" rx="4.5" stroke="black"/>
        <rect x="44.2358" y="123.485" width="13.8787" height="13.8787" rx="4.5" stroke="black"/>
        <rect x="44.2358" y="41.1561" width="13.8787" height="13.8787" rx="4.5" stroke="black"/>
        <line x1="1.25" y1="5.46392e-08" x2="1.25" y2="26.8734" stroke="black" stroke-width="2.5"/>
        <line x1="26.8735" y1="1.25" x2="0.000118256" y2="1.25" stroke="black" stroke-width="2.5"/>
        <line x1="193" y1="1.25" x2="166.127" y2="1.25" stroke="black" stroke-width="2.5"/>
        <line x1="191.75" y1="26.8734" x2="191.75" y2="-3.8147e-06" stroke="black" stroke-width="2.5"/>
        <line x1="191.75" y1="177.527" x2="191.75" y2="150.654" stroke="black" stroke-width="2.5"/>
        <line x1="166.126" y1="176.277" x2="193" y2="176.277" stroke="black" stroke-width="2.5"/>
        <line x1="5.46392e-08" y1="176.277" x2="26.8734" y2="176.277" stroke="black" stroke-width="2.5"/>
        <line x1="1.25" y1="150.654" x2="1.25" y2="177.527" stroke="black" stroke-width="2.5"/>
        <line x1="7" y1="87.75" x2="180" y2="87.75" stroke="black" stroke-width="2.5"/>
        </svg>